<svg width="107" height="110" viewBox="0 0 107 110" fill="none" xmlns="http://www.w3.org/2000/svg">
<rect y="1.53125" width="107" height="107" rx="53.5" fill="#20232D"/>
<path d="M64.1935 22.8824L22.6482 37.841C20.5708 38.589 19.4931 40.8794 20.2411 42.9568L29.3187 68.1686C30.0666 70.246 32.3571 71.3238 34.4345 70.5758L75.9798 55.6173C78.0572 54.8693 79.1349 52.5788 78.3869 50.5014L69.3093 25.2896C68.5614 23.2122 66.2709 22.1345 64.1935 22.8824Z" fill="#31353F" stroke="#525866" stroke-width="0.722973" stroke-linecap="round" stroke-linejoin="round"/>
<path d="M70.2089 27.7859L21.1406 45.4531L23.5662 52.1898L72.6345 34.5226L70.2089 27.7859Z" fill="#CDD0D5" stroke="#525866" stroke-width="0.722973" stroke-linecap="round" stroke-linejoin="round"/>
<path d="M82.8923 40.5859H38.7362C36.5282 40.5859 34.7383 42.3759 34.7383 44.5838V71.3801C34.7383 73.588 36.5282 75.378 38.7362 75.378H82.8923C85.1003 75.378 86.8902 73.588 86.8902 71.3801V44.5838C86.8902 42.3759 85.1003 40.5859 82.8923 40.5859Z" fill="#CDD0D5" stroke="#525866" stroke-width="0.722973" stroke-linecap="round" stroke-linejoin="round"/>
<path d="M79.7927 53.6758H71.5982C70.681 53.6758 69.9375 54.4193 69.9375 55.3365V60.3519C69.9375 61.2691 70.681 62.0126 71.5982 62.0126H79.7927C80.7099 62.0126 81.4535 61.2691 81.4535 60.3519V55.3365C81.4535 54.4193 80.7099 53.6758 79.7927 53.6758Z" fill="#31353F" stroke="#525866" stroke-width="0.722973" stroke-linecap="round" stroke-linejoin="round"/>
<path d="M69.9375 56.4149H73.1533V55.457" stroke="#525866" stroke-width="0.722973" stroke-linecap="round" stroke-linejoin="round"/>
<path d="M69.9375 59.2734H73.1533V60.2313" stroke="#525866" stroke-width="0.722973" stroke-linecap="round" stroke-linejoin="round"/>
<path d="M81.4524 56.2734H78.2891" stroke="#525866" stroke-width="0.722973" stroke-linecap="round" stroke-linejoin="round"/>
<path d="M81.4539 58.2539H75.9102" stroke="#525866" stroke-width="0.722973" stroke-linecap="round" stroke-linejoin="round"/>
<path d="M81.4524 60.2305H78.2891" stroke="#525866" stroke-width="0.722973" stroke-linecap="round" stroke-linejoin="round"/>
<path d="M51.0175 66.5273H38.3281V69.1583H51.0175V66.5273Z" fill="#31353F"/>
<path d="M48.2675 60.2305H38.3281V62.8615H48.2675V60.2305Z" fill="#31353F"/>
<path d="M64.6595 66.5273H53.7695V69.1583H64.6595V66.5273Z" fill="#31353F"/>
<path d="M68.1536 63.4609H46.4514C45.1407 63.4609 44.0781 64.5235 44.0781 65.8342V84.9327C44.0781 86.2434 45.1407 87.306 46.4514 87.306H68.1536C69.4643 87.306 70.5268 86.2434 70.5268 84.9327V65.8342C70.5268 64.5235 69.4643 63.4609 68.1536 63.4609Z" fill="#31353F" stroke="#F46C31" stroke-width="0.722973" stroke-linecap="round" stroke-linejoin="round"/>
<path d="M48.2852 69.5781L52.7364 74.0242Z" fill="#31353F"/>
<path d="M48.2852 69.5781L52.7364 74.0242" stroke="#F46C31" stroke-width="0.722973" stroke-linecap="round" stroke-linejoin="round"/>
<path d="M52.7312 69.5742L48.2852 74.0255Z" fill="#31353F"/>
<path d="M52.7312 69.5742L48.2852 74.0255" stroke="#F46C31" stroke-width="0.722973" stroke-linecap="round" stroke-linejoin="round"/>
<path d="M61.875 69.5703L66.3262 74.0163Z" fill="#31353F"/>
<path d="M61.875 69.5703L66.3262 74.0163" stroke="#F46C31" stroke-width="0.722973" stroke-linecap="round" stroke-linejoin="round"/>
<path d="M66.321 69.5664L61.875 74.0176Z" fill="#31353F"/>
<path d="M66.321 69.5664L61.875 74.0176" stroke="#F46C31" stroke-width="0.722973" stroke-linecap="round" stroke-linejoin="round"/>
<path d="M51.0625 78.6005L62.597 78.5938Z" fill="#31353F"/>
<path d="M51.0625 78.6005L62.597 78.5938" stroke="#F46C31" stroke-width="0.722973" stroke-linecap="round" stroke-linejoin="round"/>
<path d="M58.8672 78.5977H62.244V80.4819C62.244 81.4137 61.4874 82.1703 60.5556 82.1703C59.6237 82.1703 58.8672 81.4137 58.8672 80.4819L58.8672 78.5977Z" fill="#31353F" stroke="#F46C31" stroke-width="0.722973" stroke-linecap="round" stroke-linejoin="round"/>
<path d="M26.1707 0.644604C26.1707 0.644604 30.0546 5.20103 25.527 9.08709C30.0547 5.20095 33.9695 9.73079 33.9695 9.73079C33.9695 9.73079 30.0856 5.17437 34.6133 1.28824C30.0856 5.17437 26.1707 0.644604 26.1707 0.644604Z" fill="#CDD0D5" stroke="#525866" stroke-width="0.722973" stroke-linecap="round" stroke-linejoin="round"/>
<path d="M68.9277 102.335C68.9277 102.335 74.8959 102.811 74.4423 108.76C74.8959 102.81 80.8672 103.245 80.8672 103.245C80.8672 103.245 74.899 102.77 75.3526 96.8203C74.899 102.77 68.9277 102.335 68.9277 102.335Z" fill="#CDD0D5" stroke="#525866" stroke-width="0.722973" stroke-linecap="round" stroke-linejoin="round"/>
</svg>
