<svg width="491" height="170" viewBox="0 0 491 170" fill="none" xmlns="http://www.w3.org/2000/svg">
<g clip-path="url(#clip0_1486_106378)">
<rect width="491" height="170" rx="16" fill="#38C793" fill-opacity="0.04"/>
<path d="M240.213 47.165C243.486 44.2783 248.514 44.2783 251.787 47.165L254.303 49.3834C256.131 50.996 258.598 51.7664 261.064 51.4949L264.456 51.1214C268.869 50.6355 272.936 53.4755 273.819 57.6603L274.498 60.8762C274.991 63.214 276.516 65.2309 278.677 66.4043L281.649 68.0183C285.517 70.1187 287.07 74.7139 285.226 78.5984L283.808 81.5835C282.777 83.7535 282.777 86.2465 283.808 88.4166L285.226 91.4016C287.07 95.2861 285.517 99.8813 281.649 101.982L278.677 103.596C276.516 104.769 274.991 106.786 274.498 109.124L273.819 112.34C272.936 116.525 268.869 119.365 264.456 118.879L261.064 118.505C258.598 118.234 256.131 119.004 254.303 120.617L251.787 122.835C248.514 125.722 243.486 125.722 240.213 122.835L237.697 120.617C235.869 119.004 233.402 118.234 230.936 118.505L227.544 118.879C223.131 119.365 219.064 116.525 218.181 112.34L217.502 109.124C217.009 106.786 215.484 104.769 213.323 103.596L210.351 101.982C206.483 99.8813 204.93 95.2861 206.774 91.4016L208.192 88.4166C209.223 86.2465 209.223 83.7535 208.192 81.5834L206.774 78.5984C204.93 74.714 206.483 70.1187 210.351 68.0183L213.323 66.4043C215.484 65.2309 217.009 63.214 217.502 60.8762L218.181 57.6603C219.064 53.4755 223.131 50.6355 227.544 51.1214L230.936 51.4949C233.402 51.7664 235.869 50.996 237.697 49.3834L240.213 47.165Z" fill="#16A34A"/>
<path fill-rule="evenodd" clip-rule="evenodd" d="M258.49 70.2192C259.258 69.7575 260.253 69.9848 260.743 70.7339L262.393 73.2512C262.837 73.9296 262.729 74.8295 262.136 75.3829L262.13 75.389L262.106 75.4107L262.011 75.5004C261.927 75.5804 261.801 75.7003 261.638 75.8573C261.311 76.1713 260.836 76.6336 260.246 77.2221C259.066 78.3995 257.428 80.0794 255.605 82.0844C251.942 86.1121 247.593 91.3818 244.667 96.4939C243.849 97.9221 241.856 98.2273 240.672 96.9969L229.864 85.7666C229.551 85.4414 229.384 85.0031 229.399 84.5521C229.415 84.1009 229.614 83.6756 229.949 83.3733L233.216 80.4269C233.808 79.8932 234.694 79.8531 235.332 80.3313L240.846 84.4671C249.461 75.9719 254.347 72.712 258.49 70.2192Z" fill="white"/>
<g clip-path="url(#clip1_1486_106378)">
<g opacity="0.3">
<path d="M-136 88.2188V101.933L137.931 88.2188H-136Z" fill="#38C793"/>
<path d="M357.07 82.7884H631.001V69.0742L357.07 82.7884Z" fill="#38C793"/>
<path d="M-84.3516 277.731L-77.5649 289.645L153.645 142.109L-84.3516 277.731Z" fill="#38C793"/>
<path d="M588.836 -90.0984L582.05 -102.012L344.047 33.6104L588.836 -90.0984Z" fill="#38C793"/>
<path d="M-74.1018 -124.055L-81.0938 -112.253L154.61 27.3287L-74.1018 -124.055Z" fill="#38C793"/>
<path d="M578.866 278.578L585.852 266.782L343.168 138.996L578.866 278.578Z" fill="#38C793"/>
<path d="M74.3215 274.139L196.763 138.793L67.8633 267.687L74.3215 274.139Z" fill="#38C793"/>
<path d="M428.773 -93.2188L299.879 35.6753L435.225 -86.7664L428.773 -93.2188Z" fill="#38C793"/>
<path d="M74.3215 -102.223L67.8633 -95.7703L196.763 33.1237L74.3215 -102.223Z" fill="#38C793"/>
<path d="M428.773 265.136L435.225 258.684L299.879 136.242L428.773 265.136Z" fill="#38C793"/>
<path d="M190.142 334.975L229.513 156.762L181.344 332.564L190.142 334.975Z" fill="#38C793"/>
<path d="M316.222 -159.695L268.047 16.1131L325.021 -157.279L316.222 -159.695Z" fill="#38C793"/>
<path d="M-1.97266 29.0564L176.247 68.4332L0.438169 20.2578L-1.97266 29.0564Z" fill="#38C793"/>
<path d="M496.059 142.859L317.84 103.488L493.642 151.658L496.059 142.859Z" fill="#38C793"/>
<path d="M2.53761 159.862L176.856 105.797L0.273438 151.022L2.53761 159.862Z" fill="#38C793"/>
<path d="M496.972 33.2342L494.708 24.3945L318.125 69.6195L496.972 33.2342Z" fill="#38C793"/>
<path d="M185.473 -161.708L230.703 14.88L194.312 -163.973L185.473 -161.708Z" fill="#38C793"/>
<path d="M312.108 332.723L320.947 330.459L266.883 156.141L312.108 332.723Z" fill="#38C793"/>
</g>
</g>
<g clip-path="url(#clip2_1486_106378)">
<path d="M-338 32.7654L79.5303 65.8198L-335.306 12L-338 32.7654Z" fill="#FDC359" fill-opacity="0.15"/>
<path d="M829.999 133.711L412.469 100.656L827.298 154.476L829.999 133.711Z" fill="#FDC359" fill-opacity="0.15"/>
<path d="M-294.328 309.147L-286.389 328.525L92.7444 150.523L-294.328 309.147Z" fill="#FDC359" fill-opacity="0.15"/>
<path d="M797.406 -115.622L789.467 -135L402.395 23.6239L797.406 -115.622Z" fill="#FDC359" fill-opacity="0.15"/>
<path d="M-61.8359 323.845L-53.3298 334.888L158.689 153.977L-61.8359 323.845Z" fill="#FDC359" fill-opacity="0.15"/>
<path d="M564.133 -140.754L555.626 -151.797L335.109 18.0715L564.133 -140.754Z" fill="#FDC359" fill-opacity="0.15"/>
<path d="M-115.335 -64.1055L-120.715 -51.2493L141.437 43.3923L-115.335 -64.1055Z" fill="#FDC359" fill-opacity="0.15"/>
<path d="M605.761 231.787L611.14 218.938L348.988 124.297L605.761 231.787Z" fill="#FDC359" fill-opacity="0.15"/>
<path d="M-141.277 133.887L-139.584 147.72L135.029 100.094L-141.277 133.887Z" fill="#FDC359" fill-opacity="0.15"/>
<path d="M632.373 39.2656L356.066 73.0587L634.067 53.0992L632.373 39.2656Z" fill="#FDC359" fill-opacity="0.15"/>
</g>
</g>
<defs>
<clipPath id="clip0_1486_106378">
<rect width="491" height="170" rx="16" fill="white"/>
</clipPath>
<clipPath id="clip1_1486_106378">
<rect width="767" height="767" fill="white" transform="translate(-136 -298)"/>
</clipPath>
<clipPath id="clip2_1486_106378">
<rect width="1168" height="1164.23" fill="white" transform="translate(-338 -497)"/>
</clipPath>
</defs>
</svg>
