<svg width="66" height="69" viewBox="0 0 66 69" fill="none" xmlns="http://www.w3.org/2000/svg">
<path d="M42.0193 1.46832C42.3892 1.77586 42.6332 2.20739 42.8345 2.64435C43.4687 4.02144 43.511 5.18172 41.7394 7.05522C39.7777 9.12989 37.192 10.8249 34.338 10.9123C33.7602 10.93 32.8768 10.8082 32.7707 10.0881C32.6957 9.57898 32.9687 8.76903 33.0759 8.2635C34.4029 2.00568 40.1029 -0.124965 42.0193 1.46832Z" fill="#FDF284"/>
<path d="M41.5275 3.41504C42.0529 3.78581 42.1149 4.56534 41.8991 5.17109C41.6232 5.94508 41.0099 6.54501 40.3924 7.08714C39.3625 7.99138 38.2053 8.84529 36.8535 9.07132C36.6436 9.10642 36.4228 9.12489 36.2225 9.05261C35.5712 8.81743 36.096 8.15175 36.294 7.75702C36.5608 7.22503 36.8488 6.70299 37.1728 6.20349C38.058 4.83888 40.2006 2.47871 41.5275 3.41504Z" fill="#F6F8FA"/>
<path d="M31.7064 5.67358C31.037 4.54339 30.4799 3.80408 29.2945 3.24143C26.7382 2.02813 23.7145 3.00442 22.6405 4.59164C20.8684 7.2104 23.5176 10.6245 26.2523 11.1116C26.713 11.1937 27.1843 11.1857 27.6521 11.1775C29.7661 11.1403 31.1869 11.1372 32.4241 10.9992C33.4687 10.8826 33.7582 10.5801 33.391 9.50881C33.1229 8.72632 33.0058 7.86736 31.7064 5.67358Z" fill="#FDF284"/>
<path d="M25.5879 6.04363C24.8083 5.04345 25.1662 4.2868 26.1557 4.24627C27.1855 4.20411 28.1284 4.79391 28.9446 5.42325C29.6245 5.94755 30.276 6.52323 30.8083 7.20029C31.1083 7.58193 32.0859 8.82146 31.667 9.33359C31.3114 9.76836 30.1682 9.12435 29.7878 8.96657C28.1871 8.3027 26.658 7.41644 25.5879 6.04363Z" fill="#F6F8FA"/>
<path d="M30.9818 11.3725C30.5815 10.7671 30.6341 9.24697 31.4459 8.37646C31.9302 7.85723 32.7111 7.58999 33.3817 7.8233C34.2554 8.1273 35.0777 9.39037 34.7047 10.2799C34.6116 10.5019 34.4527 10.6887 34.2962 10.8716C34.0298 11.1831 33.7508 11.5041 33.3771 11.6725C32.7759 11.9435 31.3946 11.997 30.9818 11.3725Z" fill="#F6F8FA"/>
<path d="M20.3966 58.6755C24.6848 57.0312 29.4213 54.2647 33.3911 51.0852C33.5278 50.9774 33.6895 51.1816 33.5549 51.2899C29.5646 54.4853 24.803 57.2666 20.4908 58.9201C20.3289 58.9822 20.2347 58.7374 20.3966 58.6755Z" fill="#F6F8FA"/>
<path d="M63.2345 24.6607C55.2338 34.3307 38.2097 54.881 38.1659 54.9338C37.7413 55.4474 37.0128 55.5732 36.4362 55.243L20.5239 45.9923C20.5606 45.0699 20.2881 44.1159 19.8164 43.2459L35.8021 52.5386C35.8021 52.5386 35.8073 52.5386 35.8073 52.5438C36.4759 52.9112 37.2067 52.6739 37.5316 52.2398L64.2984 19.9173C64.7629 19.36 64.664 18.5811 64.2722 18.1562C64.3141 18.1772 64.3404 18.214 64.3718 18.2507C64.8855 18.8796 65.3938 19.5713 65.4882 20.3785C65.7031 22.1553 64.2565 23.4289 63.2345 24.6607Z" fill="#3B3B3B"/>
<path d="M35.8047 52.543C35.9095 52.6005 36.0248 52.6478 36.1401 52.6793C36.0248 52.653 35.9095 52.6058 35.8047 52.543Z" fill="#C2D6FF"/>
<path d="M62.8221 20.017C62.7931 20.0847 63.9731 18.6973 36.789 50.3006C36.5217 50.6099 36.0763 50.6833 35.725 50.4841L21.4585 42.4231C22.5067 42.6904 23.555 42.9577 24.6032 43.225C25.3423 43.4136 26.097 43.6024 26.8517 43.5185C27.6117 43.4346 28.3769 43.01 28.6547 42.3026C29.095 41.1756 28.162 40.0017 27.25 39.2102C25.4994 37.6903 23.5392 36.4115 21.4375 35.4313L45.5523 14.1049C45.7829 13.9005 46.0921 13.8323 46.3804 13.9319L51.2181 15.4991L51.7107 14.8543L56.9991 16.4005L56.7371 16.8303L62.3818 18.7644C62.9059 18.9373 63.105 19.5611 62.8221 20.017Z" fill="#C2D6FF"/>
<path d="M64.3709 19.8184C64.3316 19.91 37.4995 52.2822 37.4258 52.3558C37.4862 52.2955 64.3286 19.8924 64.3709 19.8184Z" fill="#C2D6FF"/>
<path d="M20.1363 34.7986L44.9691 12.6389C45.3442 12.3027 45.873 12.1793 46.35 12.3173C46.514 12.3646 46.4474 12.6139 46.2788 12.5696C45.8801 12.4595 45.4553 12.5614 45.1436 12.8396L20.3104 34.9992C20.1808 35.1164 20.0049 34.9145 20.1363 34.7986Z" fill="#F6F8FA"/>
<path d="M35.7409 52.6597C35.7332 52.6557 35.7266 52.6508 35.7199 52.6454C19.0464 42.9449 19.7317 43.3729 19.6979 43.3093C18.9723 41.9605 18.4656 41.866 18.5888 41.6558C18.6179 41.6054 18.6789 41.58 18.7347 41.5949C19.2019 41.7151 19.6708 41.8339 20.1396 41.9529C21.0674 42.1883 21.4939 42.2938 21.5231 42.3099L35.7895 50.3711C36.0879 50.5402 36.4667 50.4747 36.6898 50.216C63.7576 18.7493 62.6789 20.0201 62.7014 19.9675C62.9672 19.5321 62.7583 19.0273 62.341 18.8898L56.695 16.9551C56.6165 16.9282 56.5817 16.8354 56.6254 16.7629L56.7984 16.4793L51.7604 15.0063C51.3599 15.4874 51.3297 15.6764 51.1779 15.6248L46.34 14.0576C46.0974 13.9737 45.8369 14.0289 45.6393 14.204C19.91 36.9138 21.5325 35.6216 21.3813 35.5509C20.1772 34.9797 20.1164 35.062 20.0931 34.9257C20.0681 34.7891 18.3692 36.414 44.9678 12.6455C45.3902 12.268 45.9804 12.1835 46.3902 12.3286L63.6938 17.6336C64.7251 17.9651 65.0498 19.2372 64.4672 19.9046C64.4447 19.9571 65.5088 18.6577 37.6291 52.3245C37.2801 52.7986 36.479 53.0648 35.7409 52.6597ZM37.4233 52.1625L64.1944 19.8347C64.7331 19.1934 64.4806 18.1598 63.6155 17.8838L46.316 12.5804C46.2635 12.5804 45.6838 12.3577 45.1423 12.841L20.4667 34.8604C20.7835 34.9901 21.1014 35.1299 21.4157 35.277L45.4653 14.0077C45.7355 13.7689 46.0933 13.6952 46.4234 13.8091L51.1702 15.3469C51.5761 14.8571 51.5998 14.6852 51.7476 14.7296L57.0364 16.2759C57.1189 16.2998 57.1561 16.3961 57.1116 16.4699L56.9345 16.7601L62.4245 18.6416C63.016 18.8366 63.2679 19.5483 62.9332 20.087C62.9102 20.1525 64.0171 18.8458 36.8885 50.3872C36.5834 50.7404 36.0664 50.8292 35.6606 50.5994L21.4095 42.5466C20.6352 42.3477 19.8465 42.1496 19.0904 41.9568C19.4016 42.3237 19.681 42.7307 19.9108 43.1524L35.8648 52.4264L35.8643 52.4269C36.45 52.749 37.1153 52.5732 37.4233 52.1625Z" fill="#F6F8FA"/>
<path d="M3.69746 52.5434C5.46875 46.4012 7.23291 44.0134 8.82299 41.3314C10.1962 39.0154 11.6156 36.6205 13.9966 35.0177C16.0409 33.6497 17.549 33.7235 19.9344 34.6425L20.2697 34.7735C20.282 34.7781 20.2932 34.7843 20.303 34.7919C22.7365 35.7657 25.1777 37.2357 27.3371 39.1103C28.0921 39.7654 29.2826 41.0573 28.7779 42.3492C28.5067 43.0399 27.7568 43.5497 26.8673 43.648C26.0816 43.7358 25.2785 43.5313 24.5722 43.3511C17.0613 41.438 19.6518 42.0978 19.0915 41.9548C20.4603 43.5683 21.2334 45.9438 20.1305 47.7526C19.0879 49.4681 16.8685 49.9338 14.8703 50.2353C14.6934 50.2587 14.6639 50.0015 14.8314 49.9763C16.7708 49.6835 18.9226 49.2354 19.9063 47.6162C20.7116 46.2965 20.4331 44.6607 19.699 43.3076C18.9734 41.9582 18.4667 41.8641 18.5899 41.6538C18.619 41.6034 18.68 41.5781 18.7357 41.5929C19.203 41.7132 19.6719 41.832 20.1407 41.951C20.5917 42.0654 21.0426 42.1795 21.4925 42.2952L24.6367 43.0972C25.3543 43.2802 26.0944 43.4686 26.8386 43.3874C27.6325 43.2996 28.2979 42.8546 28.5343 42.2537C28.9801 41.1118 27.8679 39.9182 27.1652 39.3084C23.5553 36.1734 20.2985 35.1217 20.1438 35.0056L19.8408 34.8871C17.5021 33.9859 16.087 33.934 14.1425 35.2354C11.8111 36.8047 10.4066 39.174 9.04872 41.4652C7.43524 44.1858 5.71913 46.4805 3.9493 52.6161C3.90198 52.7817 3.64937 52.7112 3.69746 52.5434Z" fill="#F6F8FA"/>
<path d="M19.5168 56.509C21.7355 59.8788 21.7809 60.9716 20.7833 62.6437C19.5644 64.6866 17.805 66.4036 15.733 67.5724C14.3957 68.3267 13.8376 68.093 13.0326 67.4104C10.1214 64.942 7.47582 62.1801 4.94032 59.3323C2.96429 57.1129 -1.01114 54.2326 0.879754 50.9526C1.57512 49.7465 2.42537 48.6264 3.42152 47.6525C4.08037 47.0084 4.79255 46.2329 5.72043 46.0013C6.67735 45.7624 7.67388 46.4003 8.50121 46.8087C12.9489 49.0041 16.8003 52.383 19.5168 56.509Z" fill="#FE984D"/>
<path d="M19.4258 56.3738C16.4658 52.8974 13.0401 49.8476 9.24432 47.3097C6.98232 45.797 6.02505 46.016 4.236 47.605L1.54784 49.9924C1.41855 50.1076 1.24415 49.9114 1.37382 49.7964L4.06198 47.4089C5.90676 45.7702 6.98765 45.4865 9.38968 47.0916C13.2059 49.6434 16.6496 52.709 19.6254 56.2038C19.739 56.3366 19.5378 56.5045 19.4258 56.3738Z" fill="#F6F8FA"/>
<path d="M27.686 49.9798C26.3849 49.0763 24.8736 48.2884 24.1931 48.0168C22.9279 47.5118 23.1445 47.1883 22.7899 47.4986C22.3274 47.9035 21.574 48.4315 21.5551 49.0706C21.5378 49.6565 22.0596 50.1432 22.5332 50.3929C23.3087 50.8017 24.8579 51.4895 25.6732 51.5442C27.0046 51.6335 27.9419 50.4735 27.8556 50.1681C27.8321 50.0851 27.7569 50.029 27.686 49.9798Z" fill="#F6F8FA"/>
<path d="M41.4615 65.3296C41.1336 64.5623 41.4149 63.7234 41.5603 62.9358C41.6975 62.2008 41.6212 61.2982 40.9958 60.9693C38.9354 59.8852 31.4219 64.5166 28.1195 63.6892C27.2822 63.4796 26.3399 62.7851 26.2493 61.7555C26.1515 60.6512 27.0569 59.757 27.9368 59.2885C29.1337 58.6513 31.3408 58.1815 31.4209 56.9744C31.5213 55.4358 27.8485 54.8344 26.2943 54.8176C24.794 54.8064 23.1703 55.0146 22.0364 54.0503C21.5977 53.6769 21.3628 53.183 21.4078 52.7288C21.5068 51.7283 23.1383 50.5396 24.0898 50.0962C24.2453 50.0221 24.3586 50.2601 24.2004 50.3336C23.427 50.6942 22.7181 51.2225 22.1505 51.861C21.9442 52.0933 21.7031 52.405 21.6689 52.7546C21.632 53.1234 21.8332 53.5331 22.2063 53.8507C23.2693 54.7549 24.883 54.5392 26.2974 54.5555C28.0628 54.5745 31.7983 55.2197 31.6819 56.9916C31.5894 58.4009 29.2216 58.9016 28.0596 59.5198C27.254 59.949 26.4238 60.7554 26.5103 61.7325C26.5896 62.6343 27.4331 63.2472 28.183 63.4348C31.422 64.247 38.8774 59.561 41.1176 60.7374C41.8695 61.1326 41.9723 62.157 41.8183 62.9839C41.6764 63.7344 41.4129 64.5496 41.7021 65.2268C42.044 66.0263 43.0226 66.3193 43.7822 66.254C45.4927 66.1061 46.9908 64.5664 48.813 64.7341C48.9797 64.7501 48.968 65.002 48.7885 64.9951C47.0662 64.8315 45.572 66.3628 43.8047 66.515C42.8824 66.5946 41.8351 66.203 41.4615 65.3296Z" fill="#F6F8FA"/>
<path d="M27.978 55.913C27.4671 55.9549 27.0009 55.6416 26.5965 55.3267C26.4874 55.2417 26.3754 55.1509 26.317 55.0256C26.1536 54.6752 26.4527 54.1238 27.1734 54.0528C27.5813 54.0127 28.4507 54.1815 28.8027 54.3802C29.0333 54.5105 29.2307 54.7238 29.2797 54.9841C29.3597 55.4097 29.0045 55.8269 28.5872 55.9425C28.1698 56.0581 27.7222 55.9385 27.3278 55.7596" fill="#F6F8FA"/>
<path d="M37.3412 59.916C37.5857 59.8886 37.839 59.898 38.0692 59.9848C38.8067 60.2628 39.0342 61.3167 38.6008 61.9751C37.9617 62.9459 36.352 62.9865 35.6463 62.3079C34.5285 61.233 36.3651 60.0254 37.3412 59.916Z" fill="#F6F8FA"/>
<path d="M47.011 65.1148C47.17 65.3281 47.1343 65.6322 47.027 65.8757C46.6381 66.7591 45.5306 67.0807 44.7281 66.5273C43.3781 65.5964 46.146 63.9543 47.011 65.1148Z" fill="#F6F8FA"/>
<path d="M27.0963 61.1718C26.868 61.3665 26.4954 61.4103 26.2734 61.2083C25.9471 60.9114 26.1184 60.4964 26.3061 60.1788C26.3851 60.0451 26.4727 59.913 26.5936 59.8154C26.7762 59.6679 27.1074 59.5605 27.3025 59.7338C27.6336 60.0279 27.452 60.8686 27.0963 61.1718Z" fill="#F6F8FA"/>
<path d="M44.5895 30.8811C40.0072 31.6403 33.6312 31.7228 27.1407 31.762C27.1407 31.762 26.016 10.9184 26.0808 10.769L45.415 9.79297L45.7313 29.661C45.7416 30.3089 45.2367 30.8484 44.5895 30.8811Z" fill="#3B3B3B"/>
<path d="M26.0802 10.7695L15.4453 11.3064L16.8127 30.8019C16.8488 31.3162 17.2753 31.7158 17.7909 31.7182L27.14 31.7626L26.0802 10.7695Z" fill="#F6F8FA"/>
<path d="M47.3222 14.8285C47.33 15.3155 46.9504 15.7211 46.464 15.7457L25.8169 16.788L14.7906 17.0856C14.2998 17.0988 13.8882 16.7179 13.8634 16.2275L13.6652 12.3015C13.6401 11.8029 14.0238 11.3783 14.5224 11.3531C16.924 11.2319 47.7509 9.67565 46.3061 9.74858C46.8169 9.72279 47.2473 10.1256 47.2555 10.637L47.3222 14.8285Z" fill="#FE984D"/>
<path d="M37.5577 10.1914L38.6175 31.1844L34.5873 31.3879L33.7578 10.3832L37.5577 10.1914Z" fill="#FDF284"/>
<path d="M26.2529 16.7806L25.9494 10.7765C25.9411 10.6084 26.2025 10.5826 26.2115 10.7632L26.515 16.7673C26.5236 16.9405 26.2619 16.9555 26.2529 16.7806Z" fill="#F6F8FA"/>
<path d="M44.5895 30.8811C40.0072 31.6403 33.6312 31.7228 27.1407 31.762C27.1407 31.762 26.016 10.9184 26.0808 10.769L45.415 9.79297L45.7313 29.661C45.7416 30.3089 45.2367 30.8484 44.5895 30.8811Z" fill="#3B3B3B"/>
<path d="M26.0802 10.7695L15.4453 11.3064L16.8127 30.8019C16.8488 31.3162 17.2753 31.7158 17.7909 31.7182L27.14 31.7626L26.0802 10.7695Z" fill="#F6F8FA"/>
<path d="M47.3222 14.8285C47.33 15.3155 46.9504 15.7211 46.464 15.7457L25.8169 16.788L14.7906 17.0856C14.2998 17.0988 13.8882 16.7179 13.8634 16.2275L13.6652 12.3015C13.6401 11.8029 14.0238 11.3783 14.5224 11.3531C16.924 11.2319 47.7509 9.67565 46.3061 9.74858C46.8169 9.72279 47.2473 10.1256 47.2555 10.637L47.3222 14.8285Z" fill="#FE984D"/>
<path d="M37.5577 10.1914L38.6175 31.1844L34.5873 31.3879L33.7578 10.3832L37.5577 10.1914Z" fill="#FDF284"/>
<path d="M26.2529 16.7806L25.9494 10.7765C25.9411 10.6084 26.2025 10.5826 26.2115 10.7632L26.515 16.7673C26.5236 16.9405 26.2619 16.9555 26.2529 16.7806Z" fill="#F6F8FA"/>
<g opacity="0.7">
<path d="M46.4831 31.7538V24.8047C44.9033 26.5558 43.3236 28.3068 41.7438 30.0578C41.2257 30.6319 40.6992 31.199 40.1602 31.7538H46.4831Z" fill="#C2D6FF"/>
</g>
<path d="M40.2905 35.0149C39.621 34.9331 38.9848 34.8768 38.345 34.4792C37.6852 34.0693 37.3049 33.3821 37.3756 32.7285C37.3945 32.5508 37.6547 32.5874 37.6366 32.7567C37.568 33.3867 38.0123 33.9641 38.4832 34.2566C39.0339 34.5985 39.7116 34.6996 40.3023 34.7533C40.4681 34.7686 40.456 35.0149 40.2905 35.0149Z" fill="#F6F8FA"/>
<path d="M48.5969 25.6125C48.5004 24.4623 47.3459 23.498 46.1938 23.6133C46.0226 23.6318 45.9943 23.37 46.1682 23.3528C47.4567 23.2213 48.7492 24.2894 48.8579 25.5905C48.8727 25.7639 48.6112 25.7865 48.5969 25.6125Z" fill="#F6F8FA"/>
<path d="M52.8131 25.9712C52.6189 22.2113 51.76 21.3697 48.5905 20.4513C48.4246 20.4031 48.4954 20.1513 48.6631 20.1995C49.8389 20.5401 51.0703 20.9116 51.8974 21.8404C52.8433 22.9012 52.9943 24.3932 53.0752 25.9579C53.0838 26.1314 52.822 26.1458 52.8131 25.9712Z" fill="#F6F8FA"/>
<path d="M34.7977 33.6402C34.7803 33.4656 35.042 33.4458 35.0587 33.6146C35.3871 36.9503 37.9031 38.7207 40.1039 38.1044C40.2731 38.0593 40.3399 38.3105 40.1745 38.3567C37.951 38.9815 35.1567 37.284 34.7977 33.6402Z" fill="#F6F8FA"/>
<path d="M45.2442 34.7184C47.2204 34.0282 48.7764 32.2588 49.2074 30.2106C49.2428 30.0422 49.5001 30.094 49.4643 30.2644C49.0144 32.4008 47.3919 34.2459 45.3302 34.9656C45.1676 35.0237 45.0797 34.7755 45.2442 34.7184Z" fill="#F6F8FA"/>
<path d="M46.5124 7.49336C46.3603 6.62862 46.302 5.74648 46.3388 4.87149C46.3419 4.79957 46.389 4.74686 46.4755 4.74609C46.7842 4.75923 46.3923 5.30063 46.7703 7.44783C46.8007 7.61756 46.5428 7.66521 46.5124 7.49336Z" fill="#F6F8FA"/>
<path d="M47.7799 8.20921C49.0145 6.90404 50.1646 5.49776 51.1985 4.02957C51.2995 3.88734 51.512 4.03969 51.4124 4.18056C50.3719 5.659 49.2136 7.075 47.9703 8.38939C47.8517 8.51508 47.6607 8.33585 47.7799 8.20921Z" fill="#F6F8FA"/>
<path d="M48.7669 9.54543C48.5997 9.54543 48.5907 9.29683 48.7567 9.28389C49.7184 9.2089 50.6668 8.91229 51.5001 8.42631C51.6489 8.3379 51.7822 8.56522 51.6322 8.65254C50.7651 9.15849 49.7778 9.46712 48.7771 9.54492C48.7735 9.54543 48.77 9.54543 48.7669 9.54543Z" fill="#F6F8FA"/>
<path d="M7.79224 37.0887C6.06171 36.5116 4.69102 34.9162 4.38136 33.1189C4.10292 31.5056 4.68437 29.7595 5.84572 28.6066C5.38079 27.5475 5.44692 25.168 7.18008 22.6575C8.15923 21.2408 9.4342 20.0587 10.6677 18.9155C10.7953 18.7983 10.9731 18.9899 10.8458 19.1079C9.62307 20.2414 8.35832 21.4135 7.39608 22.8065C5.76864 25.1619 5.66334 27.406 6.05045 28.4152C7.32843 27.2864 8.29206 27.9413 8.12748 28.7709C7.92272 29.8053 6.5728 29.8171 5.97317 28.85C4.90855 29.9438 4.37982 31.5699 4.63932 33.0744C4.93312 34.7793 6.23369 36.2926 7.87515 36.84C8.04022 36.8954 7.95612 37.1434 7.79224 37.0887ZM6.16664 28.6626C6.48093 29.2138 7.06557 29.4029 7.4621 29.2454C7.84398 29.0919 8.03299 28.511 7.7431 28.2291C7.42422 27.9182 6.83714 28.1216 6.42767 28.4423C6.3376 28.5124 6.2511 28.5861 6.16664 28.6626Z" fill="#F6F8FA"/>
</svg>
