<svg width="144" height="87" viewBox="0 0 144 87" fill="none" xmlns="http://www.w3.org/2000/svg">
<path d="M137.52 11.3164L126.939 57.4399L126.912 57.5617C126.79 57.9417 126.438 58.2132 126.017 58.2132H74.793L83.8411 18.7776L85.5502 11.3164H137.52Z" fill="#CDD0D5" stroke="#222431" stroke-width="0.271314" stroke-miterlimit="10"/>
<path d="M134.318 9.01172L124.917 49.9529H77.6406L87.0415 9.01172H134.318Z" fill="#CDD0D5" stroke="#222431" stroke-width="0.271314" stroke-miterlimit="10"/>
<path d="M132.242 5.56641L122.854 46.5077H75.5781L84.9656 5.56641H132.242Z" fill="#CDD0D5" stroke="#222431" stroke-width="0.271314" stroke-miterlimit="10"/>
<path d="M92.456 13.043H87.5453L86.1211 19.7037H91.0185L92.456 13.043Z" fill="#EC6B30" stroke="#222431" stroke-width="0.271314" stroke-miterlimit="10"/>
<path d="M94.668 13.4492H125.245" stroke="#222431" stroke-width="0.271314" stroke-miterlimit="10"/>
<path d="M93.7578 16.3672H124.321" stroke="#222431" stroke-width="0.271314" stroke-miterlimit="10"/>
<path d="M92.8359 19.2969H123.413" stroke="#222431" stroke-width="0.271314" stroke-miterlimit="10"/>
<path d="M91.9258 22.2109H122.489" stroke="#222431" stroke-width="0.271314" stroke-miterlimit="10"/>
<path d="M126.087 58.2169C126.06 58.2169 126.032 58.2169 126.019 58.203C126.005 58.203 125.992 58.203 125.978 58.1896C125.951 58.1896 125.938 58.1762 125.911 58.1762C125.897 58.1762 125.883 58.1623 125.87 58.1623C125.856 58.1623 125.843 58.149 125.829 58.149C125.775 58.1217 125.72 58.0945 125.666 58.0678C125.612 58.0405 125.571 57.9999 125.531 57.9587C125.49 57.9181 125.449 57.8775 125.422 57.8235C125.395 57.769 125.354 57.715 125.341 57.6605C125.341 57.6472 125.327 57.6333 125.327 57.6199C125.327 57.606 125.314 57.5927 125.314 57.5793C125.3 57.5521 125.3 57.5387 125.3 57.5114C125.3 57.4975 125.3 57.4842 125.286 57.4708C125.286 57.4569 125.273 57.4297 125.273 57.4163V57.403C125.273 57.3757 125.273 57.3484 125.273 57.3212V26.1067H99.2808V18.7812H84.0195H73.2891V56.6297C73.2891 57.5114 73.9945 58.2169 74.8763 58.2169H74.9714H126.195C126.141 58.2169 126.114 58.2169 126.087 58.2169Z" fill="#CDD0D5" stroke="#222431" stroke-width="0.271314" stroke-miterlimit="10"/>
<path d="M82.7995 44.7739C83.2473 41.898 84.2643 40.8398 87.032 40.8398V42.8204C83.9388 43.0104 82.7861 43.9871 82.7316 47.0122V50.9056H80.3711V40.9891H82.6365L82.7182 44.7739H82.7995Z" fill="#222431"/>
<path d="M88.4531 40.9883H90.8003V50.9048H88.4531V40.9883Z" fill="#222431"/>
<path d="M92.4023 47.6796H94.7083C94.7896 48.8462 95.6852 49.5109 97.2858 49.5109C98.5882 49.5109 99.4021 49.0361 99.4021 48.2222C99.4021 47.6253 99.0627 47.2997 98.0319 47.0691L95.5361 46.5265C93.7314 46.1602 92.6327 45.2242 92.6327 43.7184C92.6327 41.8735 94.3017 40.6797 96.9604 40.6797C99.8633 40.6797 101.573 41.982 101.573 44.2203H99.3209C99.3209 43.0808 98.4797 42.389 97.0282 42.389C95.7259 42.389 94.9392 42.8638 94.9392 43.6506C94.9392 44.1932 95.4004 44.6137 96.2277 44.8036L98.8458 45.3599C100.786 45.7804 101.722 46.6215 101.722 48.1137C101.722 50.0536 100.067 51.2067 97.2586 51.2067C94.2065 51.2067 92.4702 49.945 92.4023 47.6796Z" fill="#222431"/>
<path d="M112.738 46.389H105.019C105.074 48.3153 106.267 49.387 107.963 49.387C109.347 49.387 110.283 48.5595 110.541 47.4471H112.671C112.358 49.8889 110.174 51.2184 107.963 51.2184C104.83 51.2184 102.781 49.4141 102.781 45.9142C102.781 42.6856 104.802 40.6914 107.854 40.6914C110.893 40.6914 112.752 42.9026 112.752 45.6293V46.389H112.738ZM105.019 45.0595H110.432C110.323 43.4588 109.293 42.5092 107.746 42.5092C106.281 42.5092 105.128 43.3638 105.019 45.0595Z" fill="#222431"/>
<path d="M113.555 42.1836C113.555 41.3154 114.233 40.6914 115.087 40.6914C115.969 40.6914 116.648 41.329 116.648 42.1836C116.648 43.0654 115.969 43.7166 115.087 43.7166C114.219 43.7166 113.555 43.0654 113.555 42.1836Z" fill="#222431"/>
<path d="M69.2575 81.6975H62.122C57.1028 81.6975 53.0195 77.6141 53.0195 72.5948C53.0195 70.1665 53.9691 67.8877 55.692 66.1648C57.4148 64.4418 59.7076 63.4922 62.122 63.4922H69.2575C70.3835 63.4922 71.2926 64.4012 71.2926 65.5272C71.2926 66.6532 70.3835 67.5617 69.2575 67.5617H62.122C60.7791 67.5617 59.5173 68.0908 58.5679 69.0405C57.6183 69.9901 57.0892 71.2652 57.0892 72.5948C57.0892 75.3759 59.3547 77.6279 62.122 77.6279H69.2575C70.3835 77.6279 71.2926 78.5364 71.2926 79.6625C71.2926 80.7885 70.3835 81.6975 69.2575 81.6975Z" stroke="#31353F" stroke-miterlimit="10"/>
<path d="M85.5684 81.697H78.433C77.3069 81.697 76.3984 80.7885 76.3984 79.6625C76.3984 78.5364 77.3069 77.6274 78.433 77.6274H85.5684C86.9114 77.6274 88.1732 77.0983 89.1228 76.1487C90.0725 75.199 90.6015 73.9239 90.6015 72.5948C90.6015 69.8138 88.3362 67.5617 85.5684 67.5617H78.433C77.3069 67.5617 76.3984 66.6527 76.3984 65.5267C76.3984 64.4007 77.3069 63.4922 78.433 63.4922H85.5684C90.5882 63.4922 94.6711 67.5751 94.6711 72.5948C94.6711 75.0227 93.7214 77.302 91.9985 79.0249C90.2761 80.7473 87.9968 81.697 85.5684 81.697Z" stroke="#31353F" stroke-miterlimit="10"/>
<path d="M84.1784 74.6321H64.1283C63.0023 74.6321 62.0938 73.723 62.0938 72.597C62.0938 71.4715 63.0023 70.5625 64.1283 70.5625H84.1784C85.3044 70.5625 86.2134 71.4715 86.2134 72.597C86.2134 73.723 85.3044 74.6321 84.1784 74.6321Z" fill="#EC6B30" stroke="#222431" stroke-width="0.271314" stroke-miterlimit="10"/>
<path d="M49.2224 13.4457C49.2224 18.9262 44.7729 23.3758 39.2923 23.3758H34.2188C35.1005 23.3758 35.9416 23.2673 36.7556 23.0502C41.0151 21.9379 44.1488 18.0581 44.1488 13.4457C44.1488 8.83335 41.0151 4.96715 36.7556 3.8412C35.9416 3.62415 35.1005 3.51562 34.2188 3.51562H39.2923C44.7864 3.51562 49.2224 7.96517 49.2224 13.4457Z" fill="#222431" stroke="#222431" stroke-width="0.271314" stroke-miterlimit="10" stroke-linecap="round" stroke-linejoin="round"/>
<path d="M44.1655 13.4482C44.1655 18.0606 41.0318 21.9268 36.7722 23.0528C32.5126 21.9404 29.3789 18.0606 29.3789 13.4482C29.3789 8.83594 32.5126 4.9697 36.7722 3.84375C41.0183 4.9697 44.1655 8.83594 44.1655 13.4482Z" fill="#CDD0D5" stroke="#222431" stroke-width="0.271314" stroke-miterlimit="10"/>
<path d="M61.649 58.2143H56.589C59.9806 58.2143 62.4357 54.9588 61.4999 51.6895C58.339 40.6063 48.6938 31.9514 37.0273 30.8525C37.8684 30.7711 38.7366 30.7305 39.5912 30.7305C52.3701 30.7305 63.1817 39.8059 66.5736 51.6759C67.496 54.9723 65.0543 58.2143 61.649 58.2143Z" fill="#222431" stroke="#222431" stroke-width="0.271314" stroke-miterlimit="10" stroke-linecap="round" stroke-linejoin="round"/>
<path d="M43.1584 58.2148C41.1913 58.2148 39.5906 59.8154 39.5906 61.7826V62.0129C39.5906 63.9801 37.9898 65.5807 36.0228 65.5807H30.9492C32.9163 65.5807 34.517 63.9801 34.517 62.0129V61.7826C34.517 59.8154 36.1178 58.2148 38.0848 58.2148H43.1584Z" fill="#222431" stroke="#222431" stroke-width="0.271314" stroke-miterlimit="10" stroke-linecap="round" stroke-linejoin="round"/>
<path d="M56.5868 58.2175H38.0968C36.1297 58.2175 34.529 59.818 34.529 61.7852V62.0161C34.529 63.9827 32.9282 65.5838 30.9612 65.5838H17.0564C14.0177 65.5838 11.5352 63.1009 11.5352 60.0623V57.512C12.1863 43.4851 23.161 32.1171 37.0115 30.8555C48.6916 31.9408 58.3232 40.6092 61.4839 51.6924C62.4336 54.9753 59.9785 58.2175 56.5868 58.2175Z" fill="#CDD0D5" stroke="#222431" stroke-width="0.271314" stroke-miterlimit="10"/>
<path d="M44.1649 13.4457C44.1649 18.0581 41.0312 21.9243 36.7716 23.0502C35.9576 23.2673 35.1166 23.3758 34.2348 23.3758C28.7543 23.3758 24.3047 18.9262 24.3047 13.4457C24.3047 7.96517 28.7543 3.51562 34.2348 3.51562C35.1166 3.51562 35.9576 3.62415 36.7716 3.8412C41.0177 4.96715 44.1649 8.83335 44.1649 13.4457Z" fill="#CDD0D5" stroke="#222431" stroke-width="0.271314" stroke-miterlimit="10"/>
<path d="M56.5882 58.2125H38.0982C36.1312 58.2125 34.5304 59.8136 34.5304 61.7807V62.0111C34.5304 63.9782 32.9297 65.5788 30.9627 65.5788H11.9978C8.95909 65.5788 6.47656 63.0965 6.47656 60.0578V57.507C7.16841 42.6122 19.4725 30.7422 34.5169 30.7422C35.3579 30.7422 36.1854 30.7829 37.013 30.8643C48.693 31.9495 58.3247 40.618 61.4855 51.7012C62.4352 54.9705 59.9796 58.2125 56.5882 58.2125Z" fill="#CDD0D5" stroke="#222431" stroke-width="0.271314" stroke-miterlimit="10"/>
</svg>
