<svg width="393" height="409" viewBox="0 0 393 409" fill="none" xmlns="http://www.w3.org/2000/svg">
<g clip-path="url(#clip0_447_34494)">
<rect width="393" height="409" rx="24" fill="#1A1A1A"/>
<path d="M2.53107 396.364L2.53103 -327.48M93.868 396.364L93.8679 -327.48M185.205 396.364L185.205 -327.48M276.542 396.364L276.542 -327.48M367.879 396.364L367.879 -327.48M459.216 396.364L459.216 -327.48M550.553 396.364L550.552 -327.48M-85 -239.949H638.845M-85 -148.612H638.845M-85 -57.2755H638.845M-85 34.0615H638.845M-85 125.398H638.845M-85 216.735H638.845M-85 308.072H638.845" stroke="url(#paint0_radial_447_34494)" stroke-width="0.226201"/>
<path d="M118.406 270.293L120.306 280.954C120.306 280.954 120.48 282.869 123.549 284.7L174.146 314.091C174.146 314.091 177.088 316.308 182.093 316.329C185.167 316.345 188.178 315.456 190.834 313.906L289.203 256.483C289.203 256.483 291.775 254.748 291.769 252.256L291.013 243.166L118.406 270.298V270.293Z" fill="white"/>
<path d="M182.167 316.562C182.167 316.562 182.119 316.562 182.093 316.562C177.072 316.541 174.13 314.371 174.008 314.276L123.432 284.901C120.295 283.033 120.083 281.059 120.078 280.98L118.184 270.335C118.173 270.276 118.184 270.213 118.221 270.16C118.258 270.107 118.311 270.075 118.374 270.065L290.986 242.933C291.049 242.922 291.113 242.938 291.16 242.98C291.208 243.018 291.24 243.076 291.245 243.139L292.002 252.229C292.002 254.832 289.441 256.594 289.335 256.668L190.95 314.101C188.199 315.71 185.162 316.556 182.167 316.556V316.562ZM118.676 270.488L120.533 280.922C120.533 280.959 120.755 282.774 123.665 284.509L174.262 313.9C174.315 313.937 177.236 316.085 182.098 316.107C185.056 316.133 188.019 315.292 190.722 313.71L289.092 256.287C289.092 256.287 291.547 254.594 291.547 252.256L290.811 243.43L118.676 270.488Z" fill="#FAFAFA"/>
<path d="M286.073 250.054L189.503 305.953C189.503 305.953 182.948 309.095 176.921 306.371L122.297 275.032C122.297 275.032 117.737 273.117 118.451 269.651C118.673 268.567 119.409 267.657 120.361 267.096L220.852 208.165C220.852 208.165 226.328 205.038 234.45 209.673L288.311 240.578C288.311 240.578 292.163 241.996 290.941 245.509C290.539 246.667 289.729 247.636 288.729 248.345C288.084 248.805 287.169 249.419 286.068 250.054H286.073Z" fill="white"/>
<path d="M182.31 307.699C180.559 307.699 178.665 307.408 176.823 306.577L122.178 275.228C122.178 275.228 117.475 273.212 118.221 269.604C118.448 268.503 119.184 267.519 120.237 266.9L220.728 207.97C220.786 207.938 226.415 204.832 234.558 209.472L288.425 240.377C288.425 240.377 292.441 241.901 291.161 245.583C290.764 246.726 289.97 247.747 288.87 248.53C288.282 248.948 287.335 249.588 286.192 250.255L189.622 306.154C189.564 306.18 186.321 307.704 182.315 307.704L182.31 307.699ZM225.738 207.377C222.759 207.377 220.992 208.345 220.96 208.367L120.475 267.292C119.533 267.847 118.872 268.72 118.671 269.694C117.999 272.937 122.337 274.8 122.385 274.816L177.035 306.164C182.871 308.799 189.342 305.768 189.405 305.741L285.96 249.853C287.092 249.197 288.023 248.567 288.605 248.154C289.626 247.43 290.362 246.488 290.732 245.43C291.864 242.176 288.388 240.842 288.24 240.789L234.341 209.869C230.939 207.927 227.997 207.377 225.749 207.377H225.738Z" fill="#FAFAFA"/>
<path d="M280.312 249.658L189.525 302.255C189.392 302.329 189.26 302.398 189.123 302.456C187.996 302.937 182.922 304.858 178.149 302.821C178.012 302.763 177.879 302.694 177.752 302.62L128.578 274.409C128.488 274.356 128.398 274.308 128.308 274.266C127.652 273.959 124.346 272.271 124.933 269.435C125.134 268.451 125.801 267.626 126.663 267.118L221.175 211.674C221.175 211.674 226.138 208.843 233.508 213.039L282.148 240.949C282.259 241.012 282.365 241.07 282.481 241.118C283.211 241.441 286.524 243.15 284.042 246.885C283.809 247.234 283.513 247.531 283.18 247.779C282.619 248.197 281.608 248.906 280.317 249.658H280.312Z" fill="#F46C31"/>
<path d="M182.841 303.958C181.318 303.958 179.672 303.715 178.058 303.027C177.916 302.964 177.773 302.895 177.635 302.816L128.461 274.604C128.376 274.557 128.292 274.509 128.207 274.472C127.514 274.149 124.08 272.387 124.699 269.387C124.906 268.382 125.578 267.483 126.541 266.922L221.053 211.478C221.264 211.356 226.217 208.626 233.613 212.843L282.258 240.753C282.359 240.811 282.465 240.864 282.57 240.912C283.036 241.118 284.597 241.906 285.052 243.451C285.364 244.52 285.089 245.721 284.232 247.012C283.999 247.367 283.687 247.684 283.316 247.959C282.703 248.414 281.703 249.113 280.428 249.853L189.64 302.451C189.503 302.53 189.36 302.604 189.212 302.667C188.54 302.953 185.947 303.964 182.841 303.964V303.958ZM225.608 210.981C222.915 210.981 221.312 211.859 221.285 211.875L126.779 267.319C125.927 267.816 125.334 268.61 125.154 269.483C124.604 272.144 127.763 273.763 128.403 274.059C128.503 274.107 128.599 274.155 128.694 274.213L177.868 302.424C177.99 302.493 178.117 302.556 178.244 302.615C182.963 304.63 188.064 302.662 189.037 302.249C189.169 302.197 189.291 302.133 189.413 302.059L280.2 249.462C281.454 248.737 282.438 248.049 283.041 247.599C283.369 247.356 283.645 247.076 283.846 246.763C284.629 245.589 284.883 244.52 284.607 243.583C284.211 242.229 282.803 241.52 282.385 241.335C282.264 241.282 282.147 241.218 282.031 241.155L233.391 213.245C230.312 211.489 227.645 210.986 225.608 210.986V210.981Z" fill="#FAFAFA"/>
<path d="M167.038 289.985C166.435 289.985 165.832 289.826 165.293 289.509L150.166 280.583C149.526 280.207 149.145 279.541 149.145 278.795C149.145 278.049 149.526 277.387 150.16 277.006C151.07 276.467 152.208 276.467 153.123 277.006L168.785 286.25C169.367 286.593 169.716 287.202 169.716 287.879C169.716 288.556 169.372 289.165 168.79 289.509C168.25 289.826 167.642 289.99 167.038 289.99V289.985ZM150.398 280.186L165.525 289.112C166.462 289.662 167.621 289.662 168.557 289.112C168.996 288.853 169.261 288.387 169.261 287.879C169.261 287.366 168.996 286.906 168.557 286.646L152.896 277.403C152.129 276.948 151.171 276.948 150.404 277.403C149.906 277.699 149.61 278.218 149.61 278.795C149.61 279.371 149.906 279.89 150.404 280.186H150.398Z" fill="white"/>
<path d="M201.898 301.587C201.591 301.772 201.31 302.005 201.104 302.296C200.802 302.708 200.554 303.322 200.924 303.989C201.252 304.581 201.781 304.735 202.231 304.745C202.633 304.751 203.025 304.629 203.368 304.422L217.326 296.147C217.94 295.782 218.628 295.306 218.977 294.687C219.188 294.322 219.501 293.634 219.236 293.163C218.585 292.031 217.262 292.481 216.474 292.952L201.892 301.597L201.898 301.587Z" fill="white"/>
<path d="M202.269 304.973C202.269 304.973 202.242 304.973 202.231 304.973C201.554 304.963 201.036 304.661 200.724 304.1C200.38 303.481 200.448 302.809 200.919 302.164C201.136 301.868 201.427 301.608 201.782 301.397L216.364 292.751C216.813 292.487 217.686 292.069 218.48 292.28C218.887 292.386 219.215 292.646 219.443 293.048C219.75 293.582 219.469 294.296 219.184 294.799C218.787 295.497 218.004 296.016 217.448 296.344L203.491 304.619C203.099 304.852 202.676 304.973 202.269 304.973ZM202.02 301.788C201.718 301.968 201.47 302.185 201.295 302.434C200.93 302.936 200.877 303.423 201.131 303.878C201.358 304.291 201.734 304.508 202.242 304.513C202.575 304.529 202.93 304.418 203.263 304.222L217.221 295.947C217.729 295.646 218.448 295.175 218.792 294.571C219.11 294.016 219.205 293.54 219.051 293.275C218.882 292.979 218.66 292.799 218.369 292.72C217.713 292.545 216.919 292.958 216.607 293.143L202.025 301.788H202.02Z" fill="#FAFAFA"/>
<path d="M222.71 289.249C222.403 289.434 222.123 289.667 221.916 289.958C221.615 290.371 221.366 290.985 221.737 291.651C222.065 292.244 222.594 292.397 223.043 292.408C223.446 292.413 223.837 292.292 224.181 292.085L229.588 288.879C230.202 288.514 230.89 288.038 231.239 287.419C231.451 287.054 231.763 286.366 231.498 285.895C230.848 284.763 229.525 285.212 228.736 285.683L222.705 289.255L222.71 289.249Z" fill="white"/>
<path d="M223.081 292.636C223.081 292.636 223.055 292.636 223.044 292.636C222.367 292.625 221.848 292.324 221.536 291.763C221.192 291.144 221.261 290.472 221.732 289.826C221.949 289.53 222.24 289.271 222.594 289.059L228.626 285.488C229.076 285.223 229.949 284.805 230.742 285.017C231.15 285.123 231.478 285.382 231.705 285.784C232.012 286.318 231.732 287.033 231.446 287.535C231.049 288.234 230.266 288.752 229.711 289.08L224.303 292.287C223.912 292.519 223.488 292.641 223.081 292.641V292.636ZM222.832 289.451C222.531 289.631 222.287 289.847 222.107 290.096C221.742 290.599 221.689 291.086 221.943 291.541C222.171 291.953 222.547 292.17 223.055 292.175C223.398 292.175 223.742 292.08 224.076 291.884L229.483 288.678C229.991 288.377 230.711 287.906 231.054 287.302C231.372 286.747 231.467 286.271 231.314 286.006C231.144 285.71 230.922 285.53 230.631 285.451C229.975 285.276 229.181 285.689 228.869 285.874L222.838 289.445L222.832 289.451Z" fill="#FAFAFA"/>
<path d="M215.667 111.055C215.667 111.055 195.291 148.811 157.233 169.79L140.117 159.832C140.117 159.832 174.011 142.716 198.582 100.568L215.661 111.055H215.667Z" fill="#838F91"/>
<path d="M157.235 170.018C157.192 170.018 157.155 170.007 157.118 169.986L140.002 160.028C139.928 159.986 139.886 159.907 139.891 159.822C139.891 159.737 139.944 159.663 140.018 159.626C140.357 159.457 174.139 142.055 198.393 100.447C198.425 100.394 198.478 100.357 198.536 100.341C198.594 100.325 198.658 100.341 198.711 100.368L215.79 110.854C215.895 110.918 215.927 111.05 215.869 111.156C215.663 111.532 195.023 149.214 157.346 169.981C157.309 170.002 157.272 170.007 157.235 170.007V170.018ZM140.595 159.843L157.24 169.526C193.346 149.574 213.732 114.055 215.366 111.135L198.673 100.886C175.732 140.119 144.351 157.827 140.6 159.843H140.595Z" fill="#FAFAFA"/>
<path d="M256.524 92.9717L273.44 102.961C273.44 102.961 250.598 122.606 215.673 111.051L198.594 100.564C198.594 100.564 222.366 113.548 256.53 92.9717H256.524Z" fill="#838F91"/>
<path d="M237.459 114.902C230.946 114.902 223.597 113.918 215.597 111.273C215.581 111.267 215.565 111.262 215.549 111.251L198.47 100.765C198.364 100.701 198.327 100.564 198.391 100.453C198.454 100.347 198.592 100.304 198.697 100.368C198.756 100.4 204.734 103.606 214.787 104.262C224.068 104.871 238.819 103.373 256.406 92.7808C256.48 92.7384 256.57 92.7384 256.639 92.7808L273.554 102.77C273.617 102.807 273.66 102.876 273.665 102.945C273.67 103.019 273.644 103.093 273.586 103.14C273.527 103.188 267.728 108.119 257.723 111.564C252.575 113.336 245.686 114.908 237.459 114.908V114.902ZM215.766 110.844C233.729 116.78 248.406 114.278 257.554 111.13C266.321 108.114 271.829 103.955 273.035 102.992L256.522 93.2411C238.877 103.839 224.057 105.331 214.729 104.717C208.681 104.32 204.094 103.003 201.359 102.003L215.766 110.849V110.844Z" fill="#FAFAFA"/>
<path d="M157.238 169.785C157.238 169.785 146.45 279.159 215.671 267.477C215.671 267.477 284.358 208.446 273.438 102.96C273.438 102.96 250.93 121.939 215.671 111.05C215.671 111.05 197.592 146.309 157.238 169.785Z" fill="#F7F7F7"/>
<path d="M205.786 268.572C194.786 268.572 185.479 265.075 178.024 258.117C170.257 250.869 160.358 235.663 157.305 204.393C155.48 185.711 156.998 169.923 157.009 169.764C157.014 169.69 157.056 169.626 157.12 169.589C196.95 146.42 215.283 111.299 215.463 110.95C215.516 110.849 215.627 110.802 215.733 110.833C233.881 116.436 248.558 113.95 257.679 110.881C267.563 107.553 273.23 102.833 273.288 102.786C273.351 102.733 273.441 102.717 273.521 102.749C273.6 102.78 273.653 102.855 273.663 102.939C276.155 127.024 274.669 150.669 269.24 173.224C264.896 191.266 258.034 208.647 248.849 224.89C240.674 239.34 232.13 250.197 226.405 256.758C220.198 263.869 215.865 267.615 215.818 267.652C215.786 267.678 215.749 267.699 215.706 267.705C212.262 268.287 208.95 268.578 205.786 268.578V268.572ZM157.453 169.923C157.321 171.393 156.019 186.557 157.76 204.351C159.437 221.53 164.368 244.742 178.336 257.779C187.813 266.625 200.342 269.81 215.569 267.255C216.585 266.366 233.262 251.514 248.463 224.636C257.627 208.43 264.473 191.092 268.801 173.092C274.182 150.727 275.685 127.278 273.256 103.394C271.901 104.447 266.462 108.394 257.854 111.299C248.695 114.389 233.976 116.891 215.786 111.32C214.352 114.008 195.902 147.51 157.453 169.917V169.923Z" fill="#FAFAFA"/>
<path d="M140.119 159.833C140.119 159.833 127.865 251.462 192.266 266.319C192.266 266.319 151.309 259.054 157.235 169.791L140.119 159.833Z" fill="#DDDDDD"/>
<path d="M192.267 266.546C192.267 266.546 192.241 266.546 192.225 266.546C192.214 266.546 192.029 266.509 191.707 266.424C177.193 262.964 165.442 255.271 156.765 243.551C149.749 234.075 144.718 221.964 141.818 207.552C136.882 183.033 139.861 160.034 139.892 159.806C139.903 159.732 139.951 159.663 140.019 159.632C140.088 159.6 140.167 159.6 140.236 159.637L157.352 169.594C157.426 169.637 157.474 169.721 157.464 169.806C155.776 195.197 157.051 229.959 172.686 251.355C180.823 262.488 189.601 265.398 191.791 265.974C191.966 266.017 192.14 266.059 192.32 266.096C192.442 266.122 192.516 266.244 192.495 266.366C192.474 266.472 192.378 266.551 192.273 266.551L192.267 266.546ZM140.305 160.203C139.956 163.155 137.675 184.652 142.268 207.467C145.157 221.811 150.162 233.858 157.135 243.276C164.839 253.678 174.987 260.884 187.347 264.747C183.442 262.842 177.744 259.043 172.336 251.657C166.802 244.096 162.643 234.313 159.977 222.573C156.654 207.949 155.649 190.229 156.987 169.907L140.294 160.198L140.305 160.203Z" fill="#838F91"/>
<path d="M188.816 191.034C188.626 191.034 188.43 190.997 188.234 190.923C187.409 190.605 187.001 189.674 187.319 188.849C187.689 187.891 196.557 165.32 211.228 153.749C225.281 142.664 238.122 144.654 244.614 151.542C245.223 152.188 245.191 153.204 244.546 153.807C243.9 154.415 242.884 154.384 242.281 153.738C236.794 147.913 225.678 146.437 213.218 156.267C199.239 167.294 190.398 189.78 190.308 190.008C190.059 190.642 189.456 191.029 188.811 191.029L188.816 191.034Z" fill="#F46C31"/>
<path d="M188.369 203.959C187.946 203.959 187.523 203.79 187.205 203.457C186.597 202.817 186.623 201.801 187.264 201.192C187.343 201.118 192.761 195.806 196.687 183.6C201.152 169.722 217.776 151.844 232.665 156.521C241.168 159.198 240.485 169.087 239.882 177.812C239.348 185.499 238.845 192.764 243.475 195.441C244.242 195.885 244.501 196.864 244.062 197.632C243.617 198.399 242.639 198.658 241.871 198.219C235.512 194.542 236.109 185.923 236.686 177.595C237.358 167.875 237.379 161.367 231.707 159.584C224.009 157.166 216.411 162.447 212.57 165.812C206.835 170.833 201.798 178.203 199.75 184.584C195.539 197.674 189.729 203.288 189.48 203.52C189.168 203.817 188.771 203.959 188.38 203.959H188.369Z" fill="#F46C31"/>
<path d="M187.881 216.811C187.511 216.811 187.135 216.684 186.834 216.419C186.162 215.843 186.088 214.827 186.67 214.16C195.072 204.435 198.305 197.642 199.543 193.652C202.865 182.933 212.506 163.341 225.236 165.954C234.399 167.827 233.823 174.155 232.865 184.642C232.638 187.134 232.384 189.954 232.209 193.092C231.907 198.552 232.876 202.372 235.008 204.139C236.934 205.737 239.315 205.203 239.336 205.197C240.193 204.986 241.066 205.509 241.278 206.367C241.489 207.224 240.965 208.097 240.108 208.308C239.95 208.345 236.151 209.25 232.96 206.605C229.971 204.128 228.638 199.52 229.008 192.912C229.188 189.716 229.447 186.864 229.675 184.346C230.68 173.288 230.696 170.34 224.595 169.092C221.616 168.483 216.908 169.314 211.379 176.737C207.908 181.399 204.627 188.076 202.606 194.599C201.283 198.88 197.86 206.107 189.098 216.255C188.781 216.62 188.336 216.811 187.887 216.811H187.881Z" fill="#F46C31"/>
<path d="M198.89 236.424C198.567 236.424 198.239 236.329 197.959 236.123C197.239 235.61 197.075 234.604 197.589 233.885C225.292 195.224 224.398 183.642 223.461 181.012C223.112 180.034 222.525 179.462 221.615 179.213C215.631 177.584 211.869 187.118 207.102 199.192L206.959 199.557C201.848 212.499 190.53 226.139 190.054 226.71C189.488 227.393 188.478 227.483 187.795 226.911C187.118 226.345 187.023 225.335 187.589 224.652C187.705 224.515 199.059 210.832 203.975 198.372L204.118 198.007C209.26 184.975 213.705 173.721 222.456 176.108C224.387 176.637 225.779 177.954 226.482 179.928C229.414 188.171 220.075 207.996 200.192 235.742C199.88 236.181 199.387 236.414 198.885 236.414L198.89 236.424Z" fill="#F46C31"/>
<path d="M229.773 219.816C229.572 219.816 229.365 219.779 229.164 219.695C226.059 218.42 223.916 216.367 222.794 213.6C220.598 208.166 223.265 201.97 223.381 201.711C223.736 200.901 224.683 200.531 225.492 200.886C226.302 201.24 226.672 202.187 226.318 202.997C226.297 203.05 224.08 208.24 225.773 212.414C226.566 214.372 228.074 215.785 230.381 216.732C231.201 217.07 231.593 218.007 231.254 218.822C231 219.441 230.402 219.816 229.773 219.816Z" fill="#F46C31"/>
<path d="M192.501 234.282C192.168 234.282 191.835 234.182 191.549 233.965C190.84 233.435 190.692 232.43 191.216 231.721C201.014 218.52 207.263 207.182 210.776 199.991C214.586 192.203 216.099 187.473 216.109 187.425C216.374 186.579 217.279 186.113 218.12 186.378C218.966 186.642 219.432 187.542 219.168 188.388C218.919 189.171 212.892 207.896 193.787 233.631C193.475 234.055 192.988 234.277 192.496 234.277L192.501 234.282Z" fill="#F46C31"/>
<g opacity="0.23">
<g filter="url(#filter0_f_447_34494)">
<circle cx="488.061" cy="488.061" r="488.061" transform="matrix(-1 0 0 1 1562 -500)" fill="#FE984D"/>
</g>
<g style="mix-blend-mode:screen" filter="url(#filter1_f_447_34494)">
<circle cx="374" cy="374" r="374" transform="matrix(-1 0 0 1 1103.14 -339.354)" fill="#C93AA9"/>
</g>
</g>
</g>
<defs>
<filter id="filter0_f_447_34494" x="345.079" y="-740.8" width="1457.72" height="1457.72" filterUnits="userSpaceOnUse" color-interpolation-filters="sRGB">
<feFlood flood-opacity="0" result="BackgroundImageFix"/>
<feBlend mode="normal" in="SourceGraphic" in2="BackgroundImageFix" result="shape"/>
<feGaussianBlur stdDeviation="120.4" result="effect1_foregroundBlur_447_34494"/>
</filter>
<filter id="filter1_f_447_34494" x="114.345" y="-580.154" width="1229.6" height="1229.6" filterUnits="userSpaceOnUse" color-interpolation-filters="sRGB">
<feFlood flood-opacity="0" result="BackgroundImageFix"/>
<feBlend mode="normal" in="SourceGraphic" in2="BackgroundImageFix" result="shape"/>
<feGaussianBlur stdDeviation="120.4" result="effect1_foregroundBlur_447_34494"/>
</filter>
<radialGradient id="paint0_radial_447_34494" cx="0" cy="0" r="1" gradientUnits="userSpaceOnUse" gradientTransform="translate(276.922 34.4419) rotate(90) scale(361.922)">
<stop stop-color="white" stop-opacity="0.8"/>
<stop offset="1" stop-color="white" stop-opacity="0"/>
</radialGradient>
<clipPath id="clip0_447_34494">
<rect width="393" height="409" rx="24" fill="white"/>
</clipPath>
</defs>
</svg>
