<svg width="34" height="30" viewBox="0 0 34 30" fill="none" xmlns="http://www.w3.org/2000/svg">
<g clip-path="url(#clip0_1848_114619)">
<path fill-rule="evenodd" clip-rule="evenodd" d="M6.33603 0.510942L0.201004 13.3976C0.177658 13.4455 0.17026 13.4996 0.179891 13.5521C0.189523 13.6045 0.215678 13.6525 0.254533 13.689L16.8238 29.5663C16.8708 29.6115 16.9335 29.6367 16.9987 29.6367C17.0639 29.6367 17.1266 29.6115 17.1737 29.5663L33.7429 13.69C33.7818 13.6535 33.8079 13.6055 33.8176 13.5531C33.8272 13.5006 33.8198 13.4465 33.7964 13.3986L27.6614 0.511933C27.6416 0.468655 27.6098 0.431992 27.5697 0.406327C27.5296 0.380663 27.483 0.367081 27.4354 0.367207H6.56402C6.5162 0.366612 6.46923 0.379866 6.42878 0.40537C6.38832 0.430874 6.35611 0.467539 6.33603 0.510942Z" fill="#50AF95"/>
<path fill-rule="evenodd" clip-rule="evenodd" d="M19.1284 14.7213C19.0095 14.7302 18.3949 14.7669 17.0239 14.7669C15.9335 14.7669 15.1593 14.7342 14.8877 14.7213C10.6738 14.5359 7.52848 13.8024 7.52848 12.9241C7.52848 12.0458 10.6738 11.3133 14.8877 11.1249V13.9907C15.1633 14.0105 15.9524 14.0571 17.0428 14.0571C18.3513 14.0571 19.0065 14.0026 19.1245 13.9917V11.1269C23.3295 11.3142 26.4679 12.0478 26.4679 12.9241C26.4679 13.8004 23.3305 14.5339 19.1245 14.7203L19.1284 14.7213ZM19.1284 10.8305V8.26606H24.9968V4.35547H9.01936V8.26606H14.8867V10.8295C10.1177 11.0486 6.53125 11.9933 6.53125 13.1253C6.53125 14.2574 10.1177 15.2011 14.8867 15.4211V23.6388H19.1274V15.4181C23.8856 15.1991 27.4661 14.2554 27.4661 13.1243C27.4661 11.9933 23.8885 11.0496 19.1274 10.8295L19.1284 10.8305Z" fill="white"/>
</g>
<defs>
<clipPath id="clip0_1848_114619">
<rect width="33.647" height="29.2695" fill="white" transform="translate(0.175781 0.367188)"/>
</clipPath>
</defs>
</svg>
