<svg width="20" height="21" viewBox="0 0 20 21" fill="none" xmlns="http://www.w3.org/2000/svg">
<path d="M8.0245 9.5115C8.72825 10.7479 9.75214 11.7717 10.9885 12.4755L11.6515 11.547C11.7581 11.3977 11.9158 11.2927 12.0946 11.2517C12.2734 11.2108 12.4611 11.2369 12.622 11.325C13.6827 11.9047 14.8542 12.2533 16.0592 12.348C16.2473 12.3629 16.4229 12.4482 16.5509 12.5867C16.6789 12.7253 16.75 12.9071 16.75 13.0958V16.4423C16.75 16.6279 16.6812 16.8071 16.5568 16.9449C16.4324 17.0828 16.2612 17.1696 16.0765 17.1885C15.679 17.2297 15.2785 17.25 14.875 17.25C8.455 17.25 3.25 12.045 3.25 5.625C3.25 5.2215 3.27025 4.821 3.3115 4.4235C3.33044 4.23877 3.41724 4.06764 3.55509 3.94323C3.69295 3.81881 3.87205 3.74996 4.05775 3.75H7.40425C7.59292 3.74998 7.77467 3.82106 7.91326 3.94909C8.05185 4.07711 8.13709 4.25267 8.152 4.44075C8.24667 5.64584 8.59531 6.81726 9.175 7.878C9.2631 8.03892 9.28916 8.22656 9.24825 8.4054C9.20734 8.58424 9.1023 8.74188 8.953 8.8485L8.0245 9.5115ZM6.133 9.01875L7.558 8.001C7.15359 7.12807 6.87651 6.20163 6.73525 5.25H4.7575C4.753 5.3745 4.75075 5.49975 4.75075 5.625C4.75 11.217 9.283 15.75 14.875 15.75C15.0002 15.75 15.1255 15.7478 15.25 15.7425V13.7648C14.2984 13.6235 13.3719 13.3464 12.499 12.942L11.4813 14.367C11.0715 14.2078 10.6735 14.0198 10.2902 13.8045L10.2468 13.7797C8.77568 12.9425 7.55746 11.7243 6.72025 10.2532L6.6955 10.2098C6.48018 9.8265 6.29221 9.4285 6.133 9.01875Z" fill="#CDD0D5"/>
</svg>
