<svg width="20" height="21" viewBox="0 0 20 21" fill="none" xmlns="http://www.w3.org/2000/svg">
<path d="M13.75 12.933V18.087C13.75 18.1533 13.7324 18.2185 13.699 18.2758C13.6656 18.3332 13.6176 18.3806 13.5599 18.4133C13.5022 18.446 13.4368 18.4629 13.3705 18.462C13.3041 18.4612 13.2392 18.4429 13.1823 18.4087L10 16.4992L6.81775 18.4087C6.76078 18.4429 6.69577 18.4613 6.62936 18.4621C6.56295 18.4628 6.49753 18.4459 6.43978 18.4131C6.38204 18.3803 6.33404 18.3328 6.30069 18.2754C6.26735 18.2179 6.24985 18.1527 6.25 18.0862V12.9337C5.27961 12.1568 4.57449 11.0977 4.23209 9.90265C3.88969 8.70764 3.92692 7.43579 4.33862 6.26285C4.75032 5.08992 5.51617 4.07381 6.53034 3.35496C7.5445 2.63611 8.75691 2.25 10 2.25C11.2431 2.25 12.4555 2.63611 13.4697 3.35496C14.4838 4.07381 15.2497 5.08992 15.6614 6.26285C16.0731 7.43579 16.1103 8.70764 15.7679 9.90265C15.4255 11.0977 14.7204 12.1568 13.75 12.9337V12.933ZM7.75 13.8127V16.1002L10 14.7502L12.25 16.1002V13.8127C11.5351 14.1019 10.7711 14.2501 10 14.2492C9.22888 14.2501 8.46487 14.1019 7.75 13.8127ZM10 12.7492C11.1935 12.7492 12.3381 12.2751 13.182 11.4312C14.0259 10.5873 14.5 9.44272 14.5 8.24925C14.5 7.05577 14.0259 5.91118 13.182 5.06727C12.3381 4.22335 11.1935 3.74925 10 3.74925C8.80653 3.74925 7.66193 4.22335 6.81802 5.06727C5.97411 5.91118 5.5 7.05577 5.5 8.24925C5.5 9.44272 5.97411 10.5873 6.81802 11.4312C7.66193 12.2751 8.80653 12.7492 10 12.7492Z" fill="#CDD0D5"/>
</svg>
