<svg width="20" height="21" viewBox="0 0 20 21" fill="none" xmlns="http://www.w3.org/2000/svg">
<path d="M16.75 3.744V17.256C16.7484 17.453 16.6694 17.6414 16.5301 17.7806C16.3907 17.9198 16.2022 17.9986 16.0052 18H3.99475C3.79736 18 3.60804 17.9216 3.4684 17.7821C3.32875 17.6426 3.2502 17.4534 3.25 17.256V3.744C3.25157 3.54704 3.33056 3.35859 3.46991 3.21938C3.60926 3.08018 3.79778 3.00137 3.99475 3H16.0052C16.4163 3 16.75 3.333 16.75 3.744ZM15.25 4.5H4.75V16.5H15.25V4.5ZM9.46975 11.3407L12.652 8.15925L13.7125 9.21975L9.46975 13.4625L6.55225 10.545L7.6135 9.4845L9.46975 11.3407Z" fill="#CDD0D5"/>
</svg>
