<svg width="20" height="21" viewBox="0 0 20 21" fill="none" xmlns="http://www.w3.org/2000/svg">
<path d="M6.0939 5.1875H5.44833L4.53125 5.43323V6.40364L5.15626 6.23614L5.15636 8.3125H4.375V9.25H6.875V8.3125H6.0939V5.1875ZM8.75 5.5H15.625V6.75H8.75V5.5ZM8.75 9.875H15.625V11.125H8.75V9.875ZM8.75 14.25H15.625V15.5H8.75V14.25ZM4.29688 12.7656C4.29688 12.0321 4.89149 11.4375 5.625 11.4375C6.35851 11.4375 6.95312 12.0321 6.95312 12.7656C6.95312 13.0691 6.85114 13.3492 6.67967 13.5729L6.67669 13.5768L5.82242 14.5625H6.875V15.5H4.37507L4.37474 14.7991L5.91981 13.0219C5.97956 12.9532 6.01562 12.8638 6.01562 12.7656C6.01562 12.5499 5.84074 12.375 5.625 12.375C5.42111 12.375 5.25358 12.5313 5.23592 12.7305L5.22819 12.9219H4.29688V12.7656Z" fill="#CDD0D5"/>
</svg>
