<svg width="20" height="21" viewBox="0 0 20 21" fill="none" xmlns="http://www.w3.org/2000/svg">
<path d="M4 15H5.5V16.5H14.5V4.5H5.5V6H4V3.75C4 3.55109 4.07902 3.36032 4.21967 3.21967C4.36032 3.07902 4.55109 3 4.75 3H15.25C15.4489 3 15.6397 3.07902 15.7803 3.21967C15.921 3.36032 16 3.55109 16 3.75V17.25C16 17.4489 15.921 17.6397 15.7803 17.7803C15.6397 17.921 15.4489 18 15.25 18H4.75C4.55109 18 4.36032 17.921 4.21967 17.7803C4.07902 17.6397 4 17.4489 4 17.25V15ZM5.5 9.75H10.75V11.25H5.5V13.5L1.75 10.5L5.5 7.5V9.75Z" fill="#DF1C41"/>
</svg>
