<svg width="20" height="21" viewBox="0 0 20 21" fill="none" xmlns="http://www.w3.org/2000/svg">
<path d="M2.5 18C2.5 16.4087 3.13214 14.8826 4.25736 13.7574C5.38258 12.6321 6.9087 12 8.5 12C10.0913 12 11.6174 12.6321 12.7426 13.7574C13.8679 14.8826 14.5 16.4087 14.5 18H13C13 16.8065 12.5259 15.6619 11.682 14.818C10.8381 13.9741 9.69347 13.5 8.5 13.5C7.30653 13.5 6.16193 13.9741 5.31802 14.818C4.47411 15.6619 4 16.8065 4 18H2.5ZM8.5 11.25C6.01375 11.25 4 9.23625 4 6.75C4 4.26375 6.01375 2.25 8.5 2.25C10.9862 2.25 13 4.26375 13 6.75C13 9.23625 10.9862 11.25 8.5 11.25ZM8.5 9.75C10.1575 9.75 11.5 8.4075 11.5 6.75C11.5 5.0925 10.1575 3.75 8.5 3.75C6.8425 3.75 5.5 5.0925 5.5 6.75C5.5 8.4075 6.8425 9.75 8.5 9.75ZM14.713 12.5273C15.767 13.0019 16.6615 13.7709 17.2889 14.7418C17.9164 15.7126 18.2501 16.844 18.25 18H16.75C16.7502 17.133 16.4999 16.2844 16.0293 15.5562C15.5587 14.828 14.8878 14.2512 14.0972 13.8953L14.7123 12.5273H14.713ZM14.197 4.05975C14.9526 4.37122 15.5987 4.90015 16.0533 5.57942C16.5078 6.25869 16.7503 7.05768 16.75 7.875C16.7503 8.90425 16.3658 9.89642 15.6719 10.6566C14.978 11.4168 14.025 11.8901 13 11.9835V10.4738C13.5557 10.3942 14.0713 10.1385 14.471 9.74434C14.8707 9.35017 15.1335 8.83824 15.2209 8.2837C15.3082 7.72916 15.2155 7.16122 14.9563 6.66327C14.6971 6.16531 14.2851 5.76356 13.7808 5.517L14.197 4.05975Z" fill="#CDD0D5"/>
</svg>
