<svg width="20" height="21" viewBox="0 0 20 21" fill="none" xmlns="http://www.w3.org/2000/svg">
<path d="M3.83725 3.6195L10 2.25L16.1627 3.6195C16.3293 3.65652 16.4782 3.74922 16.585 3.8823C16.6918 4.01538 16.75 4.18089 16.75 4.3515V11.8417C16.7499 12.5826 16.567 13.3119 16.2174 13.965C15.8678 14.6181 15.3624 15.1749 14.746 15.5858L10 18.75L5.254 15.5858C4.63771 15.1749 4.13235 14.6183 3.78276 13.9653C3.43318 13.3124 3.25018 12.5832 3.25 11.8425V4.3515C3.25003 4.18089 3.30823 4.01538 3.41499 3.8823C3.52176 3.74922 3.6707 3.65652 3.83725 3.6195ZM4.75 4.953V11.8417C4.75001 12.3356 4.87193 12.8218 5.10495 13.2572C5.33796 13.6926 5.67486 14.0638 6.08575 14.3378L10 16.9478L13.9142 14.3378C14.325 14.0639 14.6619 13.6928 14.8949 13.2575C15.1279 12.8223 15.2499 12.3362 15.25 11.8425V4.953L10 3.7875L4.75 4.953ZM10 9.75C9.50272 9.75 9.02581 9.55246 8.67417 9.20083C8.32254 8.84919 8.125 8.37228 8.125 7.875C8.125 7.37772 8.32254 6.90081 8.67417 6.54917C9.02581 6.19754 9.50272 6 10 6C10.4973 6 10.9742 6.19754 11.3258 6.54917C11.6775 6.90081 11.875 7.37772 11.875 7.875C11.875 8.37228 11.6775 8.84919 11.3258 9.20083C10.9742 9.55246 10.4973 9.75 10 9.75ZM6.64525 13.5C6.73617 12.6738 7.12876 11.9102 7.74781 11.3555C8.36686 10.8009 9.16881 10.4942 10 10.4942C10.8312 10.4942 11.6331 10.8009 12.2522 11.3555C12.8712 11.9102 13.2638 12.6738 13.3547 13.5H6.64525Z" fill="#CDD0D5"/>
</svg>
